<?xml version="1.0" encoding="iso-8859-1"?>
<!-- Generator: Adobe Illustrator 19.0.0, SVG Export Plug-In . SVG Version: 6.00 Build 0)  -->
<svg version="1.1" id="Capa_1" xmlns="http://www.w3.org/2000/svg" xmlns:xlink="http://www.w3.org/1999/xlink" x="0px" y="0px"
	 viewBox="0 0 191.147 191.147" style="enable-background:new 0 0 191.147 191.147;" xml:space="preserve">
<path style="fill:#83D816;" d="M68.008,78.507H13.91c-5.798,0-10.498-4.7-10.498-10.498V13.911c0-5.798,4.7-10.498,10.498-10.498
	h54.098c5.798,0,10.498,4.7,10.498,10.498v54.098C78.506,73.807,73.806,78.507,68.008,78.507z"/>
<path d="M68.008,81.92H13.912c-7.671,0-13.911-6.24-13.911-13.909V13.909C0.001,6.24,6.24,0,13.912,0h54.096
	c7.671,0,13.911,6.24,13.911,13.909v54.1C81.919,75.68,75.68,81.92,68.008,81.92z M13.91,6.827c-3.907,0-7.084,3.176-7.084,7.083
	v54.1c0,3.907,3.178,7.083,7.084,7.083h54.096c3.907,0,7.084-3.176,7.084-7.083v-54.1c0-3.907-3.178-7.083-7.084-7.083H13.91z"/>
<path style="fill:#A0F954;" d="M177.235,78.507h-54.098c-5.798,0-10.498-4.7-10.498-10.498V13.911c0-5.798,4.7-10.498,10.498-10.498
	h54.098c5.798,0,10.498,4.7,10.498,10.498v54.098C187.732,73.807,183.032,78.507,177.235,78.507z"/>
<path d="M177.235,81.92h-54.096c-7.671,0-13.911-6.24-13.911-13.909V13.909c0-7.67,6.24-13.909,13.911-13.909h54.096
	c7.671,0,13.911,6.24,13.911,13.909v54.1C191.146,75.68,184.906,81.92,177.235,81.92z M123.137,6.827
	c-3.907,0-7.084,3.176-7.084,7.083v54.1c0,3.907,3.178,7.083,7.084,7.083h54.096c3.907,0,7.084-3.176,7.084-7.083v-54.1
	c0-3.907-3.178-7.083-7.084-7.083H123.137z"/>
<path style="fill:#A0F954;" d="M68.008,187.733H13.91c-5.798,0-10.498-4.7-10.498-10.498v-54.098c0-5.798,4.7-10.498,10.498-10.498
	h54.098c5.798,0,10.498,4.7,10.498,10.498v54.098C78.506,183.033,73.806,187.733,68.008,187.733z"/>
<path d="M68.008,191.147H13.912c-7.671,0-13.911-6.24-13.911-13.909v-54.101c0-7.67,6.24-13.909,13.911-13.909h54.096
	c7.671,0,13.911,6.24,13.911,13.909v54.1C81.919,184.907,75.68,191.147,68.008,191.147z M13.91,116.053
	c-3.907,0-7.084,3.176-7.084,7.083v54.1c0,3.907,3.178,7.083,7.084,7.083h54.096c3.907,0,7.084-3.176,7.084-7.083v-54.1
	c0-3.907-3.178-7.083-7.084-7.083H13.91z"/>
<path style="fill:#83D816;" d="M177.235,187.733h-54.098c-5.798,0-10.498-4.7-10.498-10.498v-54.098
	c0-5.798,4.7-10.498,10.498-10.498h54.098c5.798,0,10.498,4.7,10.498,10.498v54.098
	C187.732,183.033,183.032,187.733,177.235,187.733z"/>
<path d="M177.235,191.147h-54.096c-7.671,0-13.911-6.24-13.911-13.909v-54.101c0-7.67,6.24-13.909,13.911-13.909h54.096
	c7.671,0,13.911,6.24,13.911,13.909v54.1C191.146,184.907,184.906,191.147,177.235,191.147z M123.137,116.053
	c-3.907,0-7.084,3.176-7.084,7.083v54.1c0,3.907,3.178,7.083,7.084,7.083h54.096c3.907,0,7.084-3.176,7.084-7.083v-54.1
	c0-3.907-3.178-7.083-7.084-7.083H123.137z"/>
<g>
</g>
<g>
</g>
<g>
</g>
<g>
</g>
<g>
</g>
<g>
</g>
<g>
</g>
<g>
</g>
<g>
</g>
<g>
</g>
<g>
</g>
<g>
</g>
<g>
</g>
<g>
</g>
<g>
</g>
</svg>
